<svg width="236" height="242" viewBox="0 0 236 242" fill="none" xmlns="http://www.w3.org/2000/svg">
<path fill-rule="evenodd" clip-rule="evenodd" d="M225.726 20.6563H140.344V0L0 22.2399V217.181L140.344 242V211.383H225.726C228.311 211.518 230.844 210.596 232.769 208.818C234.695 207.041 235.856 204.553 236 201.899V30.1321C235.854 27.4794 234.692 24.9938 232.766 23.2183C230.841 21.4428 228.31 20.5218 225.726 20.6563ZM227.074 203.474H140.058L139.914 187.127H160.876V168.089H139.754L139.653 156.839H160.876V137.801H139.493L139.392 126.551H160.876V107.513H139.324V96.2635H160.876V77.2254H139.324V65.9756H160.876V46.9375H139.324V29.6302H227.074V203.474Z" fill="#20744A"/>
<path d="M168.978 47.1611H207.614V66.1361H168.978V47.1611Z" fill="#20744A"/>
<path d="M168.978 77.3574H207.614V96.3324H168.978V77.3574Z" fill="#20744A"/>
<path d="M168.978 107.554H207.614V126.529H168.978V107.554Z" fill="#20744A"/>
<path d="M168.978 137.75H207.614V156.725H168.978V137.75Z" fill="#20744A"/>
<path d="M168.978 167.946H207.614V186.921H168.978V167.946Z" fill="#20744A"/>
<path fill-rule="evenodd" clip-rule="evenodd" d="M24.7263 75.0547L43.9062 73.9938L55.9628 105.984L70.2092 72.6742L89.3891 71.6133L66.098 117.033L89.3891 162.564L69.1099 161.244L55.4177 126.537L41.7165 159.925L23.0818 158.338L44.7284 118.119L24.7263 75.0547Z" fill="white"/>
</svg>
