<svg width="69" height="71" viewBox="0 0 69 71" fill="none" xmlns="http://www.w3.org/2000/svg">
<circle cx="34.5" cy="38.5" r="32.5" fill="#A56492" fill-opacity="0.65"/>
<path d="M48.4604 55.433L46.5671 40.2745C46.2988 38.1274 45.2553 36.1523 43.6329 34.7206C42.0105 33.2889 39.9209 32.4992 37.7572 32.5H31.237C29.0742 32.5006 26.9861 33.2909 25.3649 34.7225C23.7438 36.1541 22.7012 38.1284 22.433 40.2745L20.5367 55.433C20.4326 56.2658 20.5069 57.1112 20.7547 57.9131C21.0024 58.715 21.4179 59.455 21.9736 60.084C22.5293 60.713 23.2124 61.2166 23.9776 61.5613C24.7428 61.906 25.5727 62.0839 26.4119 62.0833H42.5881C43.4271 62.0835 44.2566 61.9052 45.0215 61.5603C45.7864 61.2155 46.4691 60.7118 47.0245 60.0829C47.5799 59.454 47.9951 58.7141 48.2427 57.9124C48.4902 57.1107 48.5644 56.2656 48.4604 55.433V55.433Z" stroke="#F8F8F8" stroke-width="5" stroke-linecap="round" stroke-linejoin="round"/>
<path d="M34.5 20.6667C39.4015 20.6667 43.375 16.6932 43.375 11.7917C43.375 6.89014 39.4015 2.91666 34.5 2.91666C29.5985 2.91666 25.625 6.89014 25.625 11.7917C25.625 16.6932 29.5985 20.6667 34.5 20.6667Z" stroke="#F8F8F8" stroke-width="5"/>
<path d="M10.8334 29.5417C14.101 29.5417 16.75 26.8927 16.75 23.625C16.75 20.3573 14.101 17.7083 10.8334 17.7083C7.56567 17.7083 4.91669 20.3573 4.91669 23.625C4.91669 26.8927 7.56567 29.5417 10.8334 29.5417Z" stroke="#F8F8F8" stroke-width="5"/>
<path d="M58.1667 29.5417C61.4344 29.5417 64.0833 26.8927 64.0833 23.625C64.0833 20.3573 61.4344 17.7083 58.1667 17.7083C54.899 17.7083 52.25 20.3573 52.25 23.625C52.25 26.8927 54.899 29.5417 58.1667 29.5417Z" stroke="#F8F8F8" stroke-width="5"/>
<path d="M10.8333 38.4167H9.92809C8.5275 38.4165 7.17227 38.9132 6.10349 39.8184C5.03471 40.7235 4.3217 41.9785 4.0913 43.36L3.10618 49.2767C2.9648 50.1244 3.0098 50.9927 3.23803 51.8213C3.46626 52.6498 3.87224 53.4187 4.42774 54.0744C4.98325 54.7302 5.67494 55.257 6.45469 55.6183C7.23445 55.9797 8.08356 56.1668 8.94297 56.1667H19.7083" stroke="#F8F8F8" stroke-width="5" stroke-linecap="round" stroke-linejoin="round"/>
<path d="M58.1667 38.4167H59.0719C60.4725 38.4165 61.8278 38.9132 62.8965 39.8184C63.9653 40.7235 64.6783 41.9785 64.9087 43.36L65.8939 49.2767C66.0352 50.1244 65.9902 50.9927 65.762 51.8213C65.5338 52.6498 65.1278 53.4187 64.5723 54.0744C64.0168 54.7302 63.3251 55.257 62.5453 55.6183C61.7656 55.9797 60.9165 56.1668 60.0571 56.1667H49.2917" stroke="#F8F8F8" stroke-width="5" stroke-linecap="round" stroke-linejoin="round"/>
</svg>
